<?xml version="1.0" encoding="UTF-8" standalone="no"?>
<!-- Created with Inkscape (http://www.inkscape.org/) -->

<svg
   xmlns:dc="http://purl.org/dc/elements/1.1/"
   xmlns:cc="http://creativecommons.org/ns#"
   xmlns:rdf="http://www.w3.org/1999/02/22-rdf-syntax-ns#"
   xmlns:svg="http://www.w3.org/2000/svg"
   xmlns="http://www.w3.org/2000/svg"
   xmlns:sodipodi="http://sodipodi.sourceforge.net/DTD/sodipodi-0.dtd"
   xmlns:inkscape="http://www.inkscape.org/namespaces/inkscape"
   width="250"
   height="140"
   id="svg2"
   version="1.1"
   inkscape:version="0.48.3.1 r9886"
   sodipodi:docname="assinatura-modelo.svg"
   inkscape:export-filename="/home/atila/NetBeansProjects/sige-comsolid/public/img/certificados/default/assinatura-1.png"
   inkscape:export-xdpi="90"
   inkscape:export-ydpi="90">
  <defs
     id="defs4" />
  <sodipodi:namedview
     id="base"
     pagecolor="#ffffff"
     bordercolor="#666666"
     borderopacity="1.0"
     inkscape:pageopacity="0.0"
     inkscape:pageshadow="2"
     inkscape:zoom="2.298"
     inkscape:cx="158.99662"
     inkscape:cy="57.281245"
     inkscape:document-units="px"
     inkscape:current-layer="layer1"
     showgrid="false"
     inkscape:showpageshadow="false"
     inkscape:window-width="1280"
     inkscape:window-height="946"
     inkscape:window-x="0"
     inkscape:window-y="24"
     inkscape:window-maximized="1" />
  <metadata
     id="metadata7">
    <rdf:RDF>
      <cc:Work
         rdf:about="">
        <dc:format>image/svg+xml</dc:format>
        <dc:type
           rdf:resource="http://purl.org/dc/dcmitype/StillImage" />
        <dc:title />
      </cc:Work>
    </rdf:RDF>
  </metadata>
  <g
     inkscape:label="Camada 1"
     inkscape:groupmode="layer"
     id="layer1"
     transform="translate(0,-912.36218)">
    <text
       xml:space="preserve"
       style="font-size:11.00696564px;font-style:normal;font-weight:normal;line-height:125%;letter-spacing:0px;word-spacing:0px;fill:#000000;fill-opacity:1;stroke:none;font-family:Sans"
       x="88.711502"
       y="1020.7255"
       id="text3771"
       sodipodi:linespacing="125%"><tspan
         sodipodi:role="line"
         id="tspan3773"
         x="88.711502"
         y="1020.7255">Pedro Peter</tspan></text>
    <text
       sodipodi:linespacing="125%"
       id="text3775"
       y="1038.132"
       x="68.694099"
       style="font-size:11.00696564px;font-style:normal;font-weight:normal;line-height:125%;letter-spacing:0px;word-spacing:0px;fill:#000000;fill-opacity:1;stroke:none;font-family:Sans"
       xml:space="preserve"><tspan
         y="1038.132"
         x="68.694099"
         id="tspan3777"
         sodipodi:role="line">Coordenador do ESL</tspan></text>
    <path
       style="fill:#000000;fill-opacity:1;stroke:none"
       id="path2991"
       d="m 8.2896929,978.6197 c 3.2447321,-3.65437 6.3774311,-7.40347 9.7891191,-10.90848 1.242868,-1.27686 2.530202,-2.50968 3.795303,-3.76452 9.208584,-9.35443 20.286966,-16.62577 31.661429,-23.0705 2.396295,-1.35773 4.85167,-2.60845 7.277505,-3.91267 5.687114,-2.94668 11.544515,-5.5582 17.473287,-7.97752 2.459355,-1.00357 4.907759,-1.94756 7.483007,-2.59246 1.351025,0.0404 2.743799,-0.21446 4.053075,0.12125 0.295833,0.0758 0.128902,0.6427 -0.007,0.91618 -0.266373,0.53586 -0.705409,0.9751 -1.138416,1.38815 -0.728035,0.69449 -1.534845,1.30236 -2.3293,1.91976 -1.973406,1.53361 -5.896907,4.34023 -7.773567,5.69765 -1.690092,1.24622 -3.390183,2.479 -5.070276,3.73867 -1.878966,1.40878 -3.729895,2.85466 -5.606598,4.26645 -8.939458,6.7249 -17.987297,13.29984 -26.88613,20.07905 -5.830883,4.60197 -11.547173,9.35201 -16.95028,14.45317 -1.834672,1.73214 -4.758361,4.60218 -6.489816,6.63484 -0.584139,0.68576 -1.082431,1.44024 -1.623646,2.16035 -0.04931,0.45104 -0.380205,0.96335 -0.147921,1.35311 0.530909,0.89082 3.583855,0.79586 4.367608,0.766 8.40535,-0.32019 0.327441,0.0253 9.224813,-0.37124 7.627993,-0.13209 15.301909,-1.14679 22.92949,-0.48064 1.231704,0.24883 1.969269,0.52544 2.523905,1.65819 0,0 -3.422235,0.16656 -3.422235,0.16656 l 0,0 c -0.519526,-0.89864 -1.36252,-1.17627 -2.370719,-1.33558 -0.521301,-0.0437 -1.05888,0.005 -1.563903,-0.1312 -0.294415,-0.0796 1.218796,-0.0464 0.913832,-0.0444 -5.367316,0.034 -10.726479,0.42725 -16.088761,0.61617 -5.265677,0.24716 -10.548475,0.59614 -15.82314,0.42059 -0.749065,-0.0249 -3.47756,-0.026 -4.013016,-1.31561 -0.19703,-0.47453 0.198155,-1.00833 0.297233,-1.5125 0.588298,-0.72688 1.137614,-1.48713 1.764893,-2.18065 1.77334,-1.96061 4.950658,-4.96269 6.771383,-6.63418 5.514102,-5.06212 11.283504,-9.83207 17.167607,-14.45663 6.800212,-5.17332 13.667969,-10.25234 20.495473,-15.38934 11.791374,-8.8718 0.840751,-0.63742 11.746363,-8.98203 1.647754,-1.2608 3.311685,-2.50032 4.967527,-3.75049 2.274997,-1.69579 5.256244,-3.87553 7.513513,-5.70125 0.746487,-0.60377 1.489756,-1.21443 2.185791,-1.87573 0.375404,-0.35667 0.733705,-0.74003 1.020889,-1.17092 0.08029,-0.12047 -0.09413,-0.4007 0.04727,-0.43176 0.844989,-0.18555 1.727442,-0.0984 2.591163,-0.14762 -2.717538,0.55728 -5.287632,1.48388 -7.875218,2.48966 -6.052703,2.35264 -12.01303,4.96172 -17.798505,7.91346 -2.442203,1.29863 -4.916569,2.53849 -7.326608,3.89587 -11.300742,6.36481 -22.260134,13.64133 -31.281079,23.03682 -1.233842,1.25325 -2.492219,2.4828 -3.701525,3.75974 -3.301676,3.48632 -6.337578,7.20109 -9.373241,10.91608 0,0 -3.4005431,-0.2298 -3.4005431,-0.2298 z"
       inkscape:connector-curvature="0" />
    <path
       style="fill:#000000;fill-opacity:1;stroke:none"
       id="path2993"
       d="m 43.922764,948.87923 c 0.545037,6.46308 0.646044,12.9519 0.771183,19.43396 0.123753,8.83963 0.188871,17.67987 0.321734,26.51938 0,0 -3.013816,0.001 -3.013816,0.001 l 0,0 c 0.05588,-8.83815 0.02512,-17.67757 -0.218689,-26.51314 -0.2115,-6.49125 -0.385379,-13.0003 -1.284704,-19.44152 0,0 3.424292,0 3.424292,0 z"
       inkscape:connector-curvature="0" />
    <path
       style="fill:#000000;fill-opacity:1;stroke:none"
       id="path2995"
       d="m 55.887247,978.68475 c 1.200324,-3.48939 2.325485,-6.99427 3.927287,-10.32961 0.548393,-1.14189 1.163501,-2.25052 1.745252,-3.37578 1.944053,-3.15767 3.769342,-6.40078 5.95246,-9.40514 0.135898,-0.18702 1.92907,-2.7391 2.726852,-2.86138 1.398947,-0.21443 2.829921,0.0607 4.244882,0.091 0.214593,0.44675 0.501041,0.86564 0.64378,1.34026 0.398333,1.3245 0.565079,3.66431 0.643078,4.94214 0.228172,3.73809 0.206487,7.49316 0.234317,11.2361 0.125533,6.01805 -0.112572,12.13047 1.366136,18.02045 0.177683,0.70774 0.435002,1.39308 0.652503,2.08961 0.355464,0.68292 0.733374,1.83322 1.60632,2.1529 0.356616,0.13059 1.416202,0.24517 1.139234,-0.0147 -0.454072,-0.426 -1.806858,0.0401 -1.774959,-0.58174 0.03794,-0.73955 1.26832,-0.76826 1.866604,-1.20464 0.749139,-0.54641 1.446941,-1.15994 2.170412,-1.73991 0.790545,-0.71983 1.589126,-1.43093 2.371636,-2.15948 2.074105,-1.9311 3.056864,-2.87181 4.982737,-4.94835 1.69374,-1.82625 3.286643,-3.74805 4.918661,-5.62909 1.57852,-1.79575 1.84638,-1.7003 5.059321,-1.16658 0.24078,0.04 0.27204,1.8282 0.27646,2.01305 0.0447,1.04259 0.25522,2.36253 1.33545,2.84748 0.18901,0.0849 0.40271,0.0975 0.60407,0.14629 -0.88191,-0.0391 -1.77965,0.0536 -2.645731,-0.11722 -0.2924,-0.0577 0.583171,-0.13142 0.862821,-0.23449 1.147,-0.42275 2.06836,-1.20598 3.05814,-1.89143 1.75052,-0.85369 3.80889,-0.79641 5.71794,-0.91341 2.45249,0.0227 5.08837,-0.68497 7.45859,0.10163 0.57412,0.19053 0.88754,0.44464 1.38058,0.77228 1.01304,0.95459 1.98122,1.52839 3.33997,1.81205 1.1757,0.12868 3.87174,0.22556 -1.56312,0.0506 -0.18139,-0.006 0.36244,-0.0234 0.54257,-0.0456 0.3634,-0.0448 0.82924,-0.14216 1.18489,-0.21122 1.62695,-0.26399 3.25942,-0.50344 4.89736,-0.69101 1.44528,-0.1574 2.89837,-0.20179 4.35086,-0.22348 1.73403,-0.0163 3.46901,-0.0208 5.20212,0.0575 0.21842,0.01 0.42628,0.0976 0.64021,0.14275 0.85908,0.18132 0.69365,0.14127 1.63075,0.28033 2.24306,0.2615 4.50302,0.32574 6.75892,0.37277 2.6597,0.0354 -1.49643,-0.0193 -1.62465,-0.0267 -0.25624,-0.0149 0.51256,-0.0327 0.76746,-0.0628 0.50416,-0.0596 0.82599,-0.13777 1.31672,-0.24064 0,0 3.37946,0.46123 3.37946,0.46123 l 0,0 c -2.35713,0.53205 -4.75764,0.50445 -7.17537,0.38929 -2.25982,-0.0598 -4.52431,-0.13304 -6.76933,-0.41511 -0.30585,-0.0484 -0.6125,-0.0919 -0.91755,-0.14507 -0.24887,-0.0434 -0.49536,-0.0996 -0.74393,-0.1446 -2.86647,-0.51926 4.19426,-0.15121 1.53931,-0.14312 -0.21276,6.5e-4 -0.42552,0.002 -0.63828,0.003 -1.45643,0.0147 -2.9138,0.0462 -4.36448,0.18799 -1.62997,0.17258 -3.24916,0.42185 -4.86918,0.66554 -2.27077,0.45887 -4.63348,0.61462 -6.92531,0.19274 -1.29696,-0.34883 -2.33572,-1.03932 -3.34093,-1.92371 -0.52927,-0.31263 -0.74438,-0.48822 -1.35389,-0.64683 -0.2721,-0.0708 -1.11286,-0.10225 -0.83321,-0.13132 0.78064,-0.0812 1.56958,-0.0342 2.35439,-0.0268 0.77264,0.007 -3.22552,0.0712 -2.31618,0.0923 -1.86958,0.10807 -3.88002,0.0911 -5.64926,0.74168 -1.96655,1.27447 0.73004,-0.50308 -1.37986,0.99671 -2.29831,1.63373 -3.4738,1.4788 -6.657331,1.33877 -0.20423,-0.087 -0.42503,-0.14242 -0.61268,-0.26102 -1.05683,-0.66798 -1.29786,-1.99634 -1.34039,-3.14592 -0.015,-0.34588 -0.0141,-0.96705 -0.12339,-1.32394 -0.0321,-0.10488 -0.28111,-0.26413 -0.1726,-0.28014 7.634041,-1.12622 3.132311,-0.37601 2.50851,0.11004 -0.32703,0.25482 -0.58919,0.58341 -0.88379,0.87512 -4.022069,4.35917 -7.886201,8.87478 -12.373946,12.77844 -0.285384,0.23982 -3.281795,2.86031 -3.92473,3.05099 -1.556355,0.46157 -3.202592,0.56137 -4.820718,0.69161 -0.392327,0.0316 -0.815894,-0.0226 -1.161952,-0.21007 -0.845239,-0.45801 -1.155592,-1.56502 -1.505319,-2.33212 -0.195701,-0.70743 -0.428461,-1.40564 -0.587102,-2.12229 -1.313587,-5.93403 -1.098817,-12.0434 -1.232509,-18.07736 -0.05005,-3.73452 -0.0542,-7.48253 -0.367249,-11.2075 -0.105063,-1.25014 -0.321278,-3.52502 -0.798119,-4.80676 -0.143125,-0.38472 -0.440859,-0.69255 -0.661288,-1.03882 0.800349,-0.0811 1.689228,-0.61812 2.401049,-0.24335 0.452072,0.23801 -0.916857,0.47901 -1.289401,0.82862 -0.608453,0.57101 -1.116459,1.24269 -1.623734,1.90521 -2.257255,2.94805 -4.072995,6.20031 -6.002517,9.36176 -0.569901,1.11894 -1.17841,2.21903 -1.709703,3.35681 -1.547887,3.31483 -2.571102,6.80655 -3.606054,10.30293 0,0 -3.42033,-0.0997 -3.42033,-0.0997 z"
       inkscape:connector-curvature="0" />
    <path
       style="fill:#000000;fill-opacity:1;stroke:none"
       id="path2997"
       d="m 156.78608,986.19438 c 0.0629,-0.40951 0.14254,-0.81682 0.18877,-1.22855 0.35696,-3.1793 0.4405,-6.39936 0.53849,-9.59351 0.12103,-3.94538 0.1438,-6.17692 0.21134,-10.18755 0.1132,-9.51766 0.10605,-19.03649 -0.008,-28.55405 0.001,-0.81943 -0.0215,-1.63926 0.004,-2.4583 0.0611,-1.9761 0.11007,-2.90677 3.81049,-1.40233 0.55371,0.22512 0.28874,1.16075 0.39917,1.74818 0.57967,3.08345 0.60952,4.00597 0.99334,7.39797 0.78833,7.88418 0.88229,15.81296 1.48094,23.71009 0.3984,5.25547 0.47934,5.45381 1.09788,10.47397 0.28598,1.86677 0.68191,4.76359 1.13123,6.71066 0.12788,0.55412 0.25397,1.11692 0.49086,1.63392 0.10387,0.22668 0.75748,0.52768 0.50898,0.54816 -3.59842,0.29643 -3.2261,0.33827 -2.59488,-1.40043 0.81526,-4.50768 0.81771,-9.1678 0.013,-13.68132 -0.17585,-0.98635 -0.44847,-1.95298 -0.6727,-2.92947 -1.07807,-4.15976 -2.81147,-8.0643 -5.75949,-11.24033 -0.44936,-0.48412 -0.95382,-0.91403 -1.43074,-1.37104 -1.05315,-0.88705 -2.19253,-1.71802 -3.49548,-2.20301 -0.28511,-0.10612 -0.57975,-0.19857 -0.8817,-0.23577 -0.249,-0.0307 -1.00087,0.004 -0.75186,0.0345 0.90222,0.1108 1.81275,0.13803 2.71912,0.20704 -0.19155,0.17296 -0.41976,0.31245 -0.57467,0.51887 -0.89745,1.19589 -1.04714,3.149 -1.16057,4.5449 -0.2403,2.95721 -0.0921,3.19522 0.13996,6.30026 0.82195,5.24449 2.57569,10.38592 6.32834,14.29877 2.71699,2.83297 3.91224,3.12425 7.35682,4.99014 6.58005,2.68235 13.68164,3.47944 20.7437,3.25897 0.78862,-0.0246 1.56592,-0.195 2.34933,-0.28874 1.64773,-0.19716 3.29605,-0.38931 4.94408,-0.58397 5.62782,-0.98527 11.38171,-1.8294 16.70084,-4.01319 1.68704,-0.91931 0.30215,-0.71106 4.05056,-0.16722 0.0897,0.013 -0.15419,0.0992 -0.21465,0.1667 -0.0864,0.0965 -0.14739,0.21305 -0.22109,0.31957 -0.51418,1.04782 -0.40359,2.20069 0.32523,3.09998 0.4292,0.28799 0.47057,0.38417 1.01027,0.45714 0.23167,0.0313 0.93432,0.0318 0.70115,0.015 -0.87028,-0.0625 -1.76436,0.0498 -2.61315,-0.15243 -0.25599,-0.061 0.49536,-0.18057 0.73202,-0.29567 0.20073,-0.0976 0.38432,-0.22713 0.57648,-0.3407 0.12805,-0.10576 0.51534,-0.36218 0.55752,-0.58995 0.0987,-0.53293 -2.09969,-1.43435 -2.31103,-1.52785 -1.84135,-0.63765 -3.7748,-0.9762 -5.70789,-1.18577 -0.76227,-0.0826 -1.53239,-0.0829 -2.29351,-0.17563 -0.34219,-0.0417 1.37098,-0.0501 1.03394,0.0222 -0.59506,0.12772 -1.2133,0.0977 -1.81995,0.14648 -0.63081,0.0917 -4.50338,0.56542 -2.41399,1.90174 0.44632,0.28546 0.94469,0.47991 1.41703,0.71987 4.54592,1.56585 9.39338,1.68221 14.1506,1.786 3.94089,0.086 2.75925,0.28387 4.45352,-0.0373 1.83333,-0.11052 3.71518,-0.0826 5.52218,-0.48061 0.20691,-0.0456 0.76174,-0.19082 0.76142,-0.35897 -1.3e-4,-0.0663 -0.107,-0.0785 -0.1605,-0.11772 -1.46497,-1.08976 -3.2916,-1.60966 -5.09239,-1.74905 -0.16685,4.02757 2.22394,-0.32915 3.19635,0.10777 1.23174,0.55343 0.23812,0.30904 1.85408,0.83312 1.28386,0.41638 1.98455,0.49333 3.34531,0.74265 4.15141,0.41691 8.34856,0.492 12.51936,0.40394 4.54691,-0.0153 2.3183,-0.006 6.68584,-0.0275 0,0 3.0902,0.48809 3.0902,0.48809 l 0,0 c -4.39003,0.0159 -2.1569,0.007 -6.69939,0.0259 -6.27328,0.011 -12.59191,0.23589 -18.83978,-0.43823 -1.38332,-0.26589 -2.11941,-0.35112 -3.42248,-0.80122 -0.42799,-0.14783 -1.61807,-0.61706 -1.96822,-1.05758 -0.13876,-0.17457 -0.38622,-0.60066 -0.1682,-0.64751 1.22757,-0.26377 2.50978,-0.0835 3.76467,-0.12528 1.83492,0.245 3.80342,0.7749 5.17403,2.07917 0.0534,0.16537 0.1716,0.32271 0.16019,0.49612 -0.0285,0.4329 -0.59557,0.5495 -0.88137,0.61737 -1.87975,0.44641 -3.86499,0.35136 -5.77209,0.48923 -4.23882,0.0432 -6.53248,0.11431 -10.49328,0.0174 -4.00667,-0.098 -8.03506,-0.22325 -11.95729,-1.13229 -0.84924,-0.19682 -1.66887,-0.50464 -2.50331,-0.75696 -0.77883,-0.43022 -1.77252,-0.71442 -2.13049,-1.64833 -0.56891,-1.48421 2.52146,-1.6675 3.16495,-1.81527 5.12592,-0.46137 10.42623,-0.34189 15.34736,1.29726 0.68463,0.32083 2.58468,0.95637 2.42841,2.08691 -0.0466,0.33715 -0.38536,0.55916 -0.60347,0.75706 -1.91204,1.23987 -2.38627,0.8847 -5.449,0.94788 -0.70062,0.0144 -1.27937,-0.27818 -1.76002,-0.76125 -0.7049,-1.06322 -0.84502,-2.30884 -0.34149,-3.50179 0.0951,-0.17831 0.33018,-0.66214 0.42298,-0.66585 2.4013,-0.0962 5.05192,-0.31303 2.72215,0.93073 -5.47587,2.1637 -11.35991,3.03102 -17.12691,4.04036 -1.6572,0.19944 -3.30638,0.48388 -4.97161,0.5983 -2.68839,0.18474 -5.38432,0.25335 -8.07867,0.29846 -5.39831,0.0904 -10.85877,-0.26477 -16.08688,-1.7141 -1.62112,-0.4494 -3.17361,-1.11718 -4.76042,-1.67577 -3.50528,-1.93204 -4.65483,-2.20194 -7.41065,-5.11038 -3.77249,-3.98141 -5.5473,-9.16833 -6.42225,-14.47064 -0.28461,-3.12704 -0.42818,-3.37853 -0.27377,-6.36424 0.0778,-1.50511 0.17742,-3.4322 1.01778,-4.76899 0.15481,-0.24626 0.38344,-0.43751 0.57516,-0.65627 1.33992,-0.11105 2.67744,-0.25642 4.01976,-0.33316 0.24957,-0.0143 0.50327,0.007 0.74747,0.0606 1.65251,0.36147 3.02193,1.56667 4.27714,2.61042 0.4666,0.46928 0.95973,0.9136 1.39982,1.40784 2.90319,3.26037 4.6518,7.17829 5.68657,11.3926 0.21932,0.98639 0.48471,1.96366 0.65797,2.95917 0.79397,4.56193 0.8136,9.23749 0.19751,13.81908 -0.10659,0.43022 0.0963,1.13784 -0.31978,1.29068 -1.64762,0.60524 -3.66929,1.24786 -4.2337,-0.45204 -0.33432,-1.00693 -0.67791,-3.7351 -0.77686,-4.47273 -0.17517,-1.30585 -0.32853,-2.61454 -0.4928,-3.92181 -0.54861,-5.08147 -0.60447,-5.17299 -0.97582,-10.49031 -0.55146,-7.89635 -0.67045,-15.8265 -1.66169,-23.68879 -0.41583,-2.82813 -0.58658,-4.68262 -1.2932,-7.34369 -0.1288,-0.48506 -0.93317,-1.13334 -0.51713,-1.41403 0.8489,-0.57274 2.09038,-0.63666 3.05746,-0.29987 1.18008,0.41098 -3.16949,4.00021 -0.33888,3.73346 -0.12592,9.51856 -0.16162,19.0379 -0.21498,28.55707 -0.0381,7.02897 0.0167,14.07203 -0.398,21.09052 0,0 -3.43326,-0.0841 -3.43326,-0.0841 z"
       inkscape:connector-curvature="0" />
  </g>
</svg>
